# File created by Blade
# Date/Time:  Tue Jan 27 20:07:51 2015
# Frame Rate: 120.000 fps
#------------------------------------------------------
:FULLY-SPECIFIED
:DEGREES
1923
root 5.215298 33.087492 -4.082909 -7.019153 -1.434525 -11.898176
Spine 5.268389 -3.195314 5.803754
Head 29.111172 -15.806796 2.992651
LeftShoulder -13.494198 0.485360 29.771349
LeftArm -9.140940 -17.059405 -75.054719
LeftForeArm -15.109008 0.000000 111.496474
LeftHand 12.963512 -0.000000 -0.952499
LeftHandThumb1 -26.253704 0.000000 33.147579
RightShoulder -20.913063 -18.219901 -19.402721
RightArm 12.183557 -18.987814 87.085433
RightForeArm -16.666618 0.000000 21.826537
RightHand 18.028371 -0.000000 0.379389
RightHandThumb1 -24.326973 -0.000000 -32.862282
LeftUpLeg 14.418867 -4.271223 3.884317
LeftLeg -2.388776 -0.000000 0.000000
LeftFoot -12.301580 5.752476 -14.804342
LeftToeBase 23.178897 -0.000000 -0.000000
RightUpLeg -38.948483 12.657681 -4.973362
RightLeg 105.299855 -0.000000 -0.000000
RightFoot 26.667952 -30.792928 8.434420
RightToeBase 19.634717 -0.000000 -0.000000
1924
root 5.198970 33.102935 -4.070220 -7.005104 -1.382734 -12.053067
Spine 5.252330 -3.218180 5.975493
Head 28.957208 -15.973767 3.208266
LeftShoulder -13.415414 0.457884 29.809748
LeftArm -9.148503 -16.947055 -75.098933
LeftForeArm -15.256547 0.000000 111.411841
LeftHand 13.025309 -0.000000 -1.323497
LeftHandThumb1 -26.253704 0.000000 33.147579
RightShoulder -21.020364 -18.271186 -19.246925
RightArm 12.202637 -18.828263 86.956493
RightForeArm -16.650694 0.000000 21.736739
RightHand 18.146778 -0.000000 0.600760
RightHandThumb1 -24.326973 -0.000000 -32.862282
LeftUpLeg 14.408592 -4.405499 4.054095
LeftLeg -2.358026 -0.000000 0.000000
LeftFoot -12.330396 5.730243 -14.865541
LeftToeBase 23.648512 -0.000000 -0.000000
RightUpLeg -39.070466 12.432118 -4.790862
RightLeg 105.817487 -0.000000 -0.000000
RightFoot 26.920223 -30.340876 8.182583
RightToeBase 19.271010 -0.000000 -0.000000
1925
root 5.180209 33.115636 -4.060839 -6.968950 -1.422391 -12.185970
Spine 5.225788 -3.155777 6.110855
Head 28.800563 -16.172824 3.447682
LeftShoulder -13.337706 0.415821 29.870513
LeftArm -9.186309 -16.851948 -75.082374
LeftForeArm -15.185190 -0.000000 111.302642
LeftHand 13.091026 -0.000000 -1.436609
LeftHandThumb1 -26.253704 0.000000 33.147579
RightShoulder -21.124667 -18.292447 -19.098345
RightArm 12.216198 -18.739987 86.844905
RightForeArm -16.658607 -0.000000 21.590867
RightHand 18.182684 0.000000 0.330606
RightHandThumb1 -24.326973 -0.000000 -32.862282
LeftUpLeg 14.389283 -4.466419 4.212190
LeftLeg -2.330211 -0.000000 0.000000
LeftFoot -12.371575 5.783445 -14.871643
LeftToeBase 23.633569 -0.000000 -0.000000
RightUpLeg -39.276788 12.260389 -4.564945
RightLeg 106.312702 -0.000000 -0.000000
RightFoot 27.188227 -29.973707 7.925197
RightToeBase 19.522807 -0.000000 -0.000000
1926
root 5.160592 33.125786 -4.050418 -6.946480 -1.542468 -12.284963
Spine 5.219765 -3.050527 6.197421
Head 28.648987 -16.307715 3.724376
LeftShoulder -13.268494 0.388676 29.954908
LeftArm -9.259799 -16.790459 -75.058080
LeftForeArm -15.352587 0.000000 111.222639
LeftHand 13.190821 -0.000000 -1.376155
LeftHandThumb1 -26.253704 0.000000 33.147579
RightShoulder -21.193754 -18.288042 -18.964842
RightArm 12.215570 -18.644520 86.763843
RightForeArm -16.854974 -0.000000 21.450674
RightHand 18.070518 -0.000000 -0.191090
RightHandThumb1 -24.326973 -0.000000 -32.862282
LeftUpLeg 14.429354 -4.495522 4.331679
LeftLeg -2.351136 -0.000000 0.000000
LeftFoot -12.402744 5.910977 -14.876633
LeftToeBase 23.422339 -0.000000 -0.000000
RightUpLeg -39.506023 12.122108 -4.318647
RightLeg 106.790282 -0.000000 -0.000000
RightFoot 27.380830 -29.615454 7.759235
RightToeBase 19.804095 -0.000000 -0.000000
1927
root 5.143719 33.132424 -4.041779 -6.904090 -1.718511 -12.354264
Spine 5.192263 -2.926684 6.266310
Head 28.523634 -16.383124 3.942033
LeftShoulder -13.210990 0.415967 30.020091
LeftArm -9.324049 -16.760071 -75.018520
LeftForeArm -15.471754 0.000000 111.171170
LeftHand 13.275054 -0.000000 -1.385207
LeftHandThumb1 -26.253704 0.000000 33.147579
RightShoulder -21.250816 -18.280375 -18.887270
RightArm 12.237123 -18.597571 86.699461
RightForeArm -16.824072 -0.000000 21.285406
RightHand 18.077401 -0.000000 -0.311129
RightHandThumb1 -24.326973 -0.000000 -32.862282
LeftUpLeg 14.457423 -4.466289 4.419051
LeftLeg -2.377442 -0.000000 0.000000
LeftFoot -12.430405 6.108820 -14.793529
LeftToeBase 22.754214 -0.000000 -0.000000
RightUpLeg -39.782707 12.023964 -4.083574
RightLeg 107.241603 -0.000000 -0.000000
RightFoot 27.559395 -29.210707 7.628989
RightToeBase 19.758248 -0.000000 -0.000000
1928
root 5.123730 33.136947 -4.034144 -6.859635 -1.950538 -12.419923
Spine 5.167586 -2.772288 6.326019
Head 28.410765 -16.449922 4.152825
LeftShoulder -13.178578 0.483856 30.077732
LeftArm -9.350810 -16.746047 -74.972327
LeftForeArm -15.530020 -0.000000 111.117029
LeftHand 13.219362 -0.000000 -1.645302
LeftHandThumb1 -26.253704 0.000000 33.147579
RightShoulder -21.325604 -18.353353 -18.809289
RightArm 12.355325 -18.551359 86.646706
RightForeArm -16.687613 0.000000 21.126704
RightHand 18.145617 -0.000000 0.253545
RightHandThumb1 -24.326973 -0.000000 -32.862282
LeftUpLeg 14.499751 -4.423516 4.501499
LeftLeg -2.395238 -0.000000 0.000000
LeftFoot -12.523403 6.212907 -14.818380
LeftToeBase 23.351550 -0.000000 -0.000000
RightUpLeg -40.082048 11.973152 -3.808141
RightLeg 107.651090 -0.000000 -0.000000
RightFoot 27.838176 -28.726838 7.419669
RightToeBase 19.817507 -0.000000 -0.000000
1929
root 5.106405 33.136505 -4.022136 -6.832039 -2.215419 -12.455157
Spine 5.144682 -2.650394 6.366886
Head 28.334740 -16.415449 4.286761
LeftShoulder -13.200820 0.625098 30.113566
LeftArm -9.340844 -16.775940 -74.915570
LeftForeArm -15.781688 -0.000000 111.039855
LeftHand 13.267679 -0.000000 -1.569567
LeftHandThumb1 -26.253704 0.000000 33.147579
RightShoulder -21.322672 -18.328237 -18.830774
RightArm 12.346960 -18.536020 86.669676
RightForeArm -16.789471 -0.000000 20.998872
RightHand 18.005787 -0.000000 0.145453
RightHandThumb1 -24.326973 -0.000000 -32.862282
LeftUpLeg 14.544907 -4.108805 4.624397
LeftLeg -2.372442 -0.000000 0.000000
LeftFoot -12.578859 6.035490 -14.908261
LeftToeBase 23.371920 -0.000000 -0.000000
RightUpLeg -40.363649 11.927070 -3.538826
RightLeg 108.020176 -0.000000 -0.000000
RightFoot 28.027505 -28.274588 7.331283
RightToeBase 19.839611 -0.000000 -0.000000
